<svg width="84" height="58" viewBox="0 0 84 58" fill="none" xmlns="http://www.w3.org/2000/svg">
<rect x="0.5" y="0.5" width="83" height="57" rx="3.5" fill="white" stroke="#F3F3F3"/>
<path fill-rule="evenodd" clip-rule="evenodd" d="M11.3319 38.2051L11.9729 38.1403C12.0114 38.3568 12.0897 38.5155 12.2076 38.6172C12.3257 38.7187 12.4848 38.7693 12.6851 38.7693C12.8973 38.7693 13.057 38.7243 13.1647 38.6343C13.2722 38.544 13.3259 38.4386 13.3259 38.3178C13.3259 38.2404 13.3033 38.1746 13.2584 38.12C13.2132 38.0656 13.1345 38.0185 13.022 37.9781C12.9449 37.9517 12.7696 37.9044 12.496 37.8363C12.1436 37.7492 11.8966 37.6417 11.7545 37.514C11.5548 37.3347 11.4549 37.116 11.4549 36.8579C11.4549 36.692 11.502 36.5366 11.5962 36.3922C11.6903 36.2475 11.8262 36.1373 12.0033 36.0618C12.1807 35.9863 12.3947 35.9483 12.6453 35.9483C13.0547 35.9483 13.3628 36.0386 13.5697 36.2187C13.7767 36.399 13.8853 36.6395 13.8956 36.9404L13.2354 36.9664C13.2072 36.7983 13.1467 36.6775 13.0539 36.6036C12.9613 36.53 12.8223 36.493 12.6368 36.493C12.4454 36.493 12.2958 36.5325 12.1875 36.6113C12.1177 36.6617 12.0829 36.7294 12.0829 36.8141C12.0829 36.8915 12.1156 36.9575 12.1809 37.0127C12.2637 37.0824 12.4653 37.1552 12.7856 37.2306C13.1057 37.3061 13.3425 37.3843 13.496 37.4657C13.6493 37.5468 13.7694 37.6579 13.8563 37.7986C13.9428 37.9397 13.9864 38.1136 13.9864 38.3207C13.9864 38.5087 13.9344 38.6845 13.8304 38.8484C13.7264 39.0124 13.5795 39.1342 13.3895 39.2139C13.1995 39.2936 12.9627 39.3336 12.6791 39.3336C12.2664 39.3336 11.9495 39.2375 11.7282 39.0454C11.5071 38.8532 11.375 38.5732 11.3319 38.2051Z" fill="#0B4A8E"/>
<path fill-rule="evenodd" clip-rule="evenodd" d="M14.6708 36.9081H15.2987V39.2751H14.6708V36.9081ZM14.6708 36.0066H15.2987V36.5839H14.6708V36.0066Z" fill="#0B4A8E"/>
<path fill-rule="evenodd" clip-rule="evenodd" d="M18.2296 39.2751H17.6016V38.0644C17.6016 37.8083 17.5882 37.6427 17.5617 37.5676C17.5349 37.4925 17.4918 37.4337 17.432 37.392C17.3721 37.3505 17.3 37.3296 17.2159 37.3296C17.108 37.3296 17.0112 37.3594 16.9254 37.419C16.8397 37.4786 16.781 37.5574 16.7493 37.6558C16.7174 37.7539 16.7017 37.9355 16.7017 38.2007V39.2751H16.0738V36.9081H16.6563V37.2559C16.8625 36.9851 17.1223 36.8498 17.4351 36.8498C17.5731 36.8498 17.6992 36.8749 17.8134 36.9247C17.9275 36.9745 18.0139 37.0382 18.0725 37.1156C18.1312 37.193 18.172 37.2808 18.195 37.3792C18.218 37.4773 18.2296 37.618 18.2296 37.801V39.2751Z" fill="#0B4A8E"/>
<path fill-rule="evenodd" clip-rule="evenodd" d="M19.4994 38.0405C19.4994 38.2925 19.5475 38.4769 19.6441 38.5938C19.7404 38.711 19.8593 38.7693 20.0008 38.7693C20.1522 38.7693 20.2803 38.7094 20.3849 38.5894C20.4893 38.4695 20.5417 38.2916 20.5417 38.0561C20.5417 37.8104 20.4916 37.6278 20.3915 37.5084C20.2913 37.3893 20.1649 37.3296 20.0118 37.3296C19.863 37.3296 19.7404 37.3883 19.6441 37.5051C19.5475 37.6224 19.4994 37.8006 19.4994 38.0405ZM18.9362 39.4307L19.6483 39.5085C19.6603 39.5967 19.6879 39.6573 19.7309 39.6905C19.7906 39.7379 19.8845 39.7615 20.0125 39.7615C20.1764 39.7615 20.2992 39.737 20.3813 39.6881C20.4362 39.6553 20.478 39.6026 20.5064 39.5297C20.5257 39.4774 20.5354 39.3817 20.5354 39.2419L20.5373 38.8964C20.352 39.1489 20.1171 39.2751 19.832 39.2751C19.514 39.2751 19.2625 39.1406 19.0769 38.871C18.9313 38.6581 18.8586 38.3929 18.8586 38.0758C18.8586 37.6782 18.9538 37.3746 19.1447 37.1646C19.3355 36.9548 19.5729 36.8498 19.8565 36.8498C20.149 36.8498 20.3904 36.9786 20.5806 37.236V36.9081H21.1633V39.0358C21.1633 39.3158 21.1403 39.5249 21.0941 39.6631C21.0481 39.8018 20.9835 39.9103 20.9002 39.9892C20.8169 40.068 20.7059 40.1299 20.5669 40.1745C20.4279 40.2191 20.2522 40.2415 20.0398 40.2415C19.6385 40.2415 19.3539 40.1722 19.1859 40.0338C19.0179 39.8954 18.934 39.7198 18.934 39.5071C18.934 39.4861 18.9348 39.4608 18.9362 39.4307Z" fill="#0B4A8E"/>
<path fill-rule="evenodd" clip-rule="evenodd" d="M21.9152 36.0066H22.5432V39.2751H21.9152V36.0066Z" fill="#0B4A8E"/>
<path fill-rule="evenodd" clip-rule="evenodd" d="M24.7295 37.8938C24.7252 37.7095 24.6782 37.5697 24.5885 37.4736C24.499 37.3777 24.39 37.3296 24.2615 37.3296C24.1242 37.3296 24.0107 37.3804 23.9212 37.4815C23.8315 37.5825 23.7875 37.7201 23.789 37.8938H24.7295ZM24.6972 38.5295L25.3187 38.6332C25.2383 38.8613 25.1113 39.0352 24.9379 39.1545C24.7645 39.274 24.5474 39.3336 24.287 39.3336C23.8745 39.3336 23.5694 39.1985 23.3715 38.9285C23.2151 38.7123 23.137 38.4394 23.137 38.1094C23.137 37.716 23.2395 37.4074 23.4451 37.1843C23.6504 36.9612 23.9099 36.8498 24.2238 36.8498C24.5766 36.8498 24.8549 36.9668 25.0587 37.2007C25.2626 37.435 25.3599 37.7934 25.351 38.2765H23.778C23.7823 38.4628 23.8333 38.6077 23.9307 38.7114C24.028 38.8148 24.1494 38.8667 24.2949 38.8667C24.3937 38.8667 24.477 38.8401 24.5443 38.7868C24.6116 38.7337 24.6628 38.6477 24.6972 38.5295Z" fill="#0B4A8E"/>
<path fill-rule="evenodd" clip-rule="evenodd" d="M27.4057 39.2751V36.0066H29.8207V36.558H28.0661V37.2843H29.6976V37.8355H28.0661V38.7239H29.8853V39.2751H27.4057Z" fill="#0B4A8E"/>
<path fill-rule="evenodd" clip-rule="evenodd" d="M32.1299 39.2751V38.9206C32.0435 39.047 31.9301 39.1475 31.7895 39.222C31.6488 39.2962 31.5005 39.3336 31.3443 39.3336C31.185 39.3336 31.0424 39.2985 30.9158 39.2286C30.7895 39.1587 30.6979 39.0603 30.6413 38.9339C30.5848 38.8073 30.5566 38.6324 30.5566 38.4091V36.9081H31.1845V37.9967C31.1845 38.33 31.1959 38.5342 31.2191 38.6091C31.2421 38.6847 31.284 38.744 31.3449 38.788C31.4058 38.8318 31.4829 38.8536 31.5765 38.8536C31.6834 38.8536 31.7793 38.8245 31.8639 38.7656C31.9486 38.7069 32.0064 38.634 32.0377 38.5469C32.0687 38.4599 32.0845 38.2468 32.0845 37.9077V36.9081H32.7124V39.2751H32.1299Z" fill="#0B4A8E"/>
<path fill-rule="evenodd" clip-rule="evenodd" d="M34.0924 39.2751H33.4644V36.9081H34.047V37.2447C34.1467 37.0857 34.2362 36.9803 34.3157 36.928C34.3953 36.8759 34.4854 36.8498 34.5865 36.8498C34.729 36.8498 34.8666 36.8894 34.9988 36.9685L34.8077 37.5165C34.7021 37.4483 34.6035 37.414 34.5127 37.414C34.4247 37.414 34.3503 37.4383 34.2892 37.4864C34.2281 37.535 34.18 37.6224 34.145 37.7488C34.11 37.8751 34.0924 38.1401 34.0924 38.5431V39.2751Z" fill="#0B4A8E"/>
<path fill-rule="evenodd" clip-rule="evenodd" d="M35.8929 38.0916C35.8929 38.3275 35.9486 38.5079 36.0603 38.6332C36.172 38.7586 36.3095 38.8212 36.4734 38.8212C36.6371 38.8212 36.7744 38.7586 36.8853 38.6332C36.9961 38.5079 37.0516 38.3259 37.0516 38.0872C37.0516 37.8546 36.9961 37.6753 36.8853 37.5502C36.7744 37.4248 36.6371 37.3621 36.4734 37.3621C36.3095 37.3621 36.172 37.4248 36.0603 37.5502C35.9486 37.6753 35.8929 37.856 35.8929 38.0916ZM35.252 38.058C35.252 37.8492 35.3032 37.6471 35.4057 37.4516C35.5081 37.2563 35.6531 37.1071 35.841 37.0042C36.0287 36.9012 36.2386 36.8498 36.4702 36.8498C36.828 36.8498 37.1211 36.9664 37.3498 37.1999C37.5783 37.4333 37.6927 37.7284 37.6927 38.0849C37.6927 38.4444 37.5771 38.7426 37.3463 38.9789C37.1155 39.2153 36.8249 39.3336 36.4745 39.3336C36.2578 39.3336 36.0511 39.2842 35.8545 39.1861C35.6577 39.0875 35.5081 38.9433 35.4057 38.753C35.3032 38.5627 35.252 38.3313 35.252 38.058Z" fill="#0B4A8E"/>
<path fill-rule="evenodd" clip-rule="evenodd" d="M40.3977 36.558V37.4918H40.7574C41.0163 37.4918 41.1895 37.4748 41.277 37.4404C41.3642 37.4059 41.4327 37.352 41.4823 37.2785C41.5318 37.2052 41.5566 37.12 41.5566 37.0226C41.5566 36.9029 41.5218 36.8041 41.4522 36.7263C41.3826 36.6485 41.2946 36.5999 41.1881 36.5804C41.1096 36.5655 40.9521 36.558 40.7151 36.558H40.3977ZM39.7374 39.2751V36.0066H40.7944C41.1948 36.0066 41.4561 36.0232 41.5777 36.0558C41.7646 36.1048 41.921 36.2116 42.0471 36.376C42.1733 36.5401 42.2363 36.7524 42.2363 37.0127C42.2363 37.2133 42.2 37.3819 42.1273 37.519C42.0548 37.6556 41.9624 37.7631 41.8505 37.8411C41.7387 37.9193 41.6249 37.9708 41.5093 37.9961C41.3521 38.0275 41.1246 38.043 40.8269 38.043H40.3976V39.2751H39.7374Z" fill="#0B4A8E"/>
<path fill-rule="evenodd" clip-rule="evenodd" d="M44.2091 38.1403C44.129 38.1673 44.0024 38.1993 43.8292 38.2366C43.656 38.2738 43.5427 38.3105 43.4896 38.3462C43.408 38.4045 43.3676 38.4784 43.3676 38.5678C43.3676 38.656 43.3999 38.732 43.465 38.7963C43.5303 38.8605 43.6131 38.8926 43.714 38.8926C43.8265 38.8926 43.9336 38.8553 44.036 38.7808C44.1114 38.7239 44.1611 38.6546 44.1847 38.5724C44.2009 38.5187 44.2091 38.4164 44.2091 38.2655V38.1403ZM43.3677 37.628L42.8044 37.5242C42.8682 37.2949 42.978 37.1254 43.1338 37.0152C43.2898 36.905 43.5214 36.8498 43.8286 36.8498C44.1077 36.8498 44.3157 36.883 44.4522 36.949C44.5887 37.0156 44.6851 37.0996 44.7406 37.2015C44.7963 37.3034 44.8243 37.4908 44.8243 37.7633L44.8179 38.4958C44.8179 38.7042 44.8278 38.8582 44.8477 38.9569C44.8678 39.0559 44.9053 39.162 44.9602 39.2751H44.3387C44.3221 39.2342 44.3022 39.1734 44.2784 39.0929C44.268 39.0561 44.2606 39.0321 44.2564 39.0202C44.1495 39.1246 44.0354 39.2031 43.9138 39.2554C43.7922 39.3075 43.6627 39.3336 43.5247 39.3336C43.2815 39.3336 43.0897 39.2672 42.9496 39.1348C42.8096 39.0022 42.7395 38.8345 42.7395 38.632C42.7395 38.4981 42.7714 38.3786 42.835 38.2736C42.8991 38.1686 42.9886 38.0881 43.1035 38.0322C43.2187 37.9766 43.3847 37.9274 43.6014 37.8857C43.8937 37.8307 44.0963 37.7795 44.2092 37.7317V37.6684C44.2092 37.5464 44.1794 37.4595 44.1197 37.4074C44.0598 37.3555 43.9473 37.3296 43.7816 37.3296C43.6697 37.3296 43.5825 37.3518 43.5197 37.3958C43.457 37.44 43.4062 37.5174 43.3677 37.628Z" fill="#0B4A8E"/>
<path fill-rule="evenodd" clip-rule="evenodd" d="M45.2752 36.9081H45.9419L46.5085 38.5886L47.0621 36.9081H47.7095L46.7246 39.6023C46.6695 39.741 46.6171 39.8466 46.5673 39.9196C46.5176 39.9925 46.4602 40.0518 46.3956 40.0971C46.3307 40.1425 46.2516 40.1782 46.1571 40.2033C46.0627 40.2289 45.956 40.2415 45.8371 40.2415C45.7167 40.2415 45.5982 40.2289 45.4824 40.2035L45.424 39.7127C45.5224 39.7325 45.6114 39.742 45.6904 39.742C45.8368 39.742 45.9448 39.6986 46.015 39.6123C46.0852 39.5256 46.1389 39.4154 46.1762 39.2817L45.2752 36.9081Z" fill="#0B4A8E"/>
<path fill-rule="evenodd" clip-rule="evenodd" d="M48.199 36.9081H48.7752V37.2314C48.9821 36.977 49.2285 36.8498 49.5144 36.8498C49.666 36.8498 49.7978 36.8809 49.9094 36.9434C50.0211 37.006 50.1127 37.1007 50.1839 37.227C50.2879 37.1007 50.4004 37.006 50.5206 36.9434C50.6412 36.8809 50.7694 36.8498 50.9061 36.8498C51.0802 36.8498 51.2272 36.885 51.3476 36.956C51.468 37.0264 51.5581 37.1303 51.6176 37.2675C51.6604 37.3686 51.682 37.5323 51.682 37.7587V39.2751H51.0541V37.9193C51.0541 37.684 51.0325 37.5323 50.9896 37.4638C50.9316 37.3742 50.8427 37.3296 50.7228 37.3296C50.6352 37.3296 50.5527 37.3563 50.4756 37.4101C50.3986 37.4638 50.343 37.5423 50.3091 37.6458C50.2749 37.7492 50.2577 37.9127 50.2577 38.136V39.2751H49.6298V37.9754C49.6298 37.7442 49.6188 37.5956 49.5964 37.5284C49.5742 37.4613 49.5398 37.4115 49.493 37.3787C49.4462 37.3462 49.383 37.3296 49.3028 37.3296C49.2065 37.3296 49.1197 37.3557 49.0426 37.4078C48.9656 37.4599 48.9105 37.5352 48.8769 37.6334C48.8435 37.7317 48.827 37.8946 48.827 38.1225V39.2751H48.199V36.9081Z" fill="#0B4A8E"/>
<path fill-rule="evenodd" clip-rule="evenodd" d="M53.8451 37.8938C53.8405 37.7095 53.7937 37.5697 53.7038 37.4736C53.6145 37.3777 53.5053 37.3296 53.3769 37.3296C53.2397 37.3296 53.126 37.3804 53.0367 37.4815C52.947 37.5825 52.9031 37.7201 52.9045 37.8938H53.8451ZM53.8128 38.5295L54.4343 38.6332C54.3537 38.8613 54.2269 39.0352 54.0535 39.1545C53.8799 39.274 53.663 39.3336 53.4024 39.3336C52.9901 39.3336 52.685 39.1985 52.4869 38.9285C52.3305 38.7123 52.2524 38.4394 52.2524 38.1094C52.2524 37.716 52.3553 37.4074 52.5604 37.1843C52.766 36.9612 53.0253 36.8498 53.3394 36.8498C53.6922 36.8498 53.9702 36.9668 54.1741 37.2007C54.378 37.435 54.4755 37.7934 54.4666 38.2765H52.8934C52.8979 38.4628 52.9489 38.6077 53.0463 38.7114C53.1434 38.8148 53.2648 38.8667 53.4105 38.8667C53.5093 38.8667 53.5924 38.8401 53.6597 38.7868C53.7274 38.7337 53.7784 38.6477 53.8128 38.5295Z" fill="#0B4A8E"/>
<path fill-rule="evenodd" clip-rule="evenodd" d="M57.261 39.2751H56.6331V38.0644C56.6331 37.8083 56.6196 37.6427 56.5933 37.5676C56.5666 37.4925 56.5233 37.4337 56.4634 37.392C56.4036 37.3505 56.3315 37.3296 56.2474 37.3296C56.1396 37.3296 56.0427 37.3594 55.9571 37.419C55.8713 37.4786 55.8127 37.5574 55.7808 37.6558C55.7491 37.7539 55.7332 37.9355 55.7332 38.2007V39.2751H55.1052V36.9081H55.6878V37.2559C55.8941 36.9851 56.1537 36.8498 56.4665 36.8498C56.6045 36.8498 56.7309 36.8749 56.8448 36.9247C56.959 36.9745 57.0456 37.0382 57.1042 37.1156C57.1628 37.193 57.2035 37.2808 57.2264 37.3792C57.2496 37.4773 57.261 37.618 57.261 37.801V39.2751Z" fill="#0B4A8E"/>
<path fill-rule="evenodd" clip-rule="evenodd" d="M59.1139 36.9081V37.4074H58.6865V38.3651C58.6865 38.5589 58.6905 38.672 58.6986 38.704C58.7064 38.7361 58.7247 38.7625 58.753 38.7835C58.7816 38.8042 58.816 38.8148 58.8568 38.8148C58.914 38.8148 58.996 38.7947 59.1042 38.7546L59.1591 39.2398C59.0143 39.3023 58.8504 39.3336 58.6675 39.3336C58.555 39.3336 58.4541 39.3145 58.364 39.2765C58.2741 39.2388 58.208 39.1894 58.1657 39.129C58.1237 39.0688 58.0946 38.9872 58.0785 38.8845C58.065 38.8115 58.0586 38.6639 58.0586 38.4421V37.4074H57.7737V36.9081H58.0586V36.4347L58.6865 36.0651V36.9081H59.1139Z" fill="#0B4A8E"/>
<path fill-rule="evenodd" clip-rule="evenodd" d="M59.467 38.6073L60.0949 38.5099C60.1217 38.6309 60.1757 38.7227 60.2572 38.7855C60.3388 38.8484 60.4527 38.8795 60.5994 38.8795C60.7612 38.8795 60.8828 38.8497 60.9642 38.7899C61.0191 38.7478 61.0467 38.6919 61.0467 38.6214C61.0467 38.5737 61.0316 38.5338 61.0017 38.5027C60.9702 38.4726 60.9002 38.445 60.7912 38.4195C60.2839 38.3072 59.9621 38.2049 59.8267 38.1125C59.6385 37.9845 59.5447 37.8062 59.5447 37.5786C59.5447 37.3727 59.6257 37.1999 59.7883 37.06C59.9512 36.9199 60.2033 36.8498 60.5449 36.8498C60.8702 36.8498 61.1117 36.9023 61.27 37.0071C61.4281 37.1121 61.5371 37.2671 61.5969 37.4723L61.0077 37.5825C60.9823 37.4906 60.9338 37.4198 60.8625 37.3709C60.791 37.3217 60.6893 37.2972 60.5573 37.2972C60.3908 37.2972 60.2712 37.3202 60.1994 37.3669C60.1511 37.3997 60.1273 37.4422 60.1273 37.4945C60.1273 37.5396 60.148 37.5778 60.1898 37.6093C60.2464 37.651 60.4422 37.7102 60.7767 37.7865C61.1113 37.8629 61.345 37.9563 61.4778 38.0669C61.6087 38.1789 61.6746 38.3352 61.6746 38.5355C61.6746 38.7536 61.5839 38.9412 61.403 39.0981C61.2217 39.2552 60.9541 39.3336 60.5994 39.3336C60.2777 39.3336 60.0228 39.2682 59.8352 39.1381C59.6475 39.0076 59.5248 38.831 59.467 38.6073Z" fill="#0B4A8E"/>
<path fill-rule="evenodd" clip-rule="evenodd" d="M65.4964 37.9847L65.0402 36.7719L64.5994 37.9847H65.4964ZM66.7073 39.2751H65.9963L65.7141 38.5359H64.399L64.1301 39.2751H63.4313L64.6952 36.0066H65.3897L66.7073 39.2751Z" fill="#0B4A8E"/>
<path fill-rule="evenodd" clip-rule="evenodd" d="M67.7851 39.2751H67.1572V36.9081H67.7398V37.2447C67.8394 37.0857 67.9287 36.9803 68.0085 36.928C68.0878 36.8759 68.1779 36.8498 68.2792 36.8498C68.4218 36.8498 68.5591 36.8894 68.6915 36.9685L68.5005 37.5165C68.3946 37.4483 68.2962 37.414 68.2055 37.414C68.1172 37.414 68.0428 37.4383 67.9817 37.4864C67.9206 37.535 67.8726 37.6224 67.8377 37.7488C67.8025 37.8751 67.7851 38.1401 67.7851 38.5431V39.2751Z" fill="#0B4A8E"/>
<path fill-rule="evenodd" clip-rule="evenodd" d="M70.5049 37.8938C70.5004 37.7095 70.4533 37.5697 70.3638 37.4736C70.2741 37.3777 70.1652 37.3296 70.0369 37.3296C69.8993 37.3296 69.786 37.3804 69.6965 37.4815C69.6068 37.5825 69.5627 37.7201 69.5644 37.8938H70.5049ZM70.4726 38.5295L71.0941 38.6332C71.0138 38.8613 70.8868 39.0352 70.7134 39.1545C70.54 39.274 70.3229 39.3336 70.0624 39.3336C69.65 39.3336 69.3446 39.1985 69.1467 38.9285C68.9903 38.7123 68.9122 38.4394 68.9122 38.1094C68.9122 37.716 69.015 37.4074 69.2205 37.1843C69.4256 36.9612 69.6854 36.8498 69.9993 36.8498C70.3519 36.8498 70.6301 36.9668 70.8341 37.2007C71.0378 37.435 71.1354 37.7934 71.1265 38.2765H69.5532C69.5578 38.4628 69.6087 38.6077 69.7059 38.7114C69.8035 38.8148 69.9249 38.8667 70.0701 38.8667C70.1691 38.8667 70.2522 38.8401 70.3197 38.7868C70.3871 38.7337 70.438 38.6477 70.4726 38.5295Z" fill="#0B4A8E"/>
<path fill-rule="evenodd" clip-rule="evenodd" d="M73.0729 38.1403C72.9929 38.1673 72.8662 38.1993 72.693 38.2366C72.5198 38.2738 72.4067 38.3105 72.3534 38.3462C72.2718 38.4045 72.2314 38.4784 72.2314 38.5678C72.2314 38.656 72.2637 38.732 72.329 38.7963C72.394 38.8605 72.4769 38.8926 72.5778 38.8926C72.6903 38.8926 72.7974 38.8553 72.8997 38.7808C72.9751 38.7239 73.0248 38.6546 73.0485 38.5724C73.0646 38.5187 73.0729 38.4164 73.0729 38.2655V38.1403ZM72.2314 37.628L71.6681 37.5242C71.7319 37.2949 71.8417 37.1254 71.9975 37.0152C72.1535 36.905 72.3851 36.8498 72.6923 36.8498C72.9714 36.8498 73.1794 36.883 73.3159 36.949C73.4525 37.0156 73.5488 37.0996 73.6043 37.2015C73.66 37.3034 73.688 37.4908 73.688 37.7633L73.6816 38.4958C73.6816 38.7042 73.6915 38.8582 73.7114 38.9569C73.7315 39.0559 73.769 39.162 73.8237 39.2751H73.2024C73.1858 39.2342 73.1661 39.1734 73.1421 39.0929C73.132 39.0561 73.1243 39.0321 73.1201 39.0202C73.0132 39.1246 72.8993 39.2031 72.7777 39.2554C72.6561 39.3075 72.5264 39.3336 72.3884 39.3336C72.1452 39.3336 71.9534 39.2672 71.8133 39.1348C71.6735 39.0022 71.6035 38.8345 71.6035 38.632C71.6035 38.4981 71.6352 38.3786 71.699 38.2736C71.7628 38.1686 71.8523 38.0881 71.9672 38.0322C72.0824 37.9766 72.2484 37.9274 72.4651 37.8857C72.7574 37.8307 72.96 37.7795 73.0729 37.7317V37.6684C73.0729 37.5464 73.0431 37.4595 72.9834 37.4074C72.9238 37.3555 72.8111 37.3296 72.6453 37.3296C72.5334 37.3296 72.4462 37.3518 72.3835 37.3958C72.3209 37.44 72.2699 37.5174 72.2314 37.628Z" fill="#0B4A8E"/>
<path fill-rule="evenodd" clip-rule="evenodd" d="M25.1989 23.1636H20.9234C20.9234 22.4607 20.8409 21.989 20.6768 21.7489C20.4224 21.3937 19.7201 21.2158 18.5707 21.2158C17.4545 21.2158 16.7145 21.3181 16.3534 21.5229C15.9925 21.7284 15.8118 22.1752 15.8118 22.8631C15.8118 23.4859 15.9718 23.896 16.2925 24.0925C16.5222 24.232 16.8257 24.3139 17.2042 24.3384L18.0665 24.3994C19.9144 24.5223 21.0686 24.6088 21.5289 24.658C22.9903 24.8055 24.0498 25.1949 24.7071 25.8257C25.2244 26.318 25.5329 26.9613 25.6313 27.7557C25.6889 28.2309 25.7175 28.7686 25.7175 29.3661C25.7175 30.7432 25.5864 31.7518 25.3237 32.3909C24.8476 33.5636 23.7782 34.3043 22.1142 34.6154C21.417 34.7469 20.3505 34.8127 18.9161 34.8127C16.5216 34.8127 14.8528 34.6699 13.9106 34.3829C12.7542 34.0314 11.9918 33.3192 11.6228 32.2467C11.4173 31.6497 11.3156 30.6554 11.3156 29.2636H15.5912C15.5912 29.4188 15.5916 29.5375 15.5916 29.6192C15.5916 30.362 15.8048 30.8397 16.2301 31.0524C16.5249 31.1991 16.8808 31.2761 17.2993 31.2852H18.8711C19.6733 31.2852 20.1852 31.2442 20.406 31.1616C20.7991 31.0067 21.057 30.7575 21.1802 30.4126C21.2457 30.2003 21.2782 29.9256 21.2782 29.5894C21.2782 28.8363 21.0037 28.3781 20.4558 28.2137C20.2509 28.1487 19.2975 28.0583 17.5958 27.9435C16.2293 27.8458 15.28 27.7517 14.7484 27.6606C13.3486 27.3983 12.4157 26.859 11.9502 26.0401C11.541 25.3443 11.3363 24.2915 11.3363 22.8833C11.3363 21.8108 11.447 20.9508 11.668 20.304C11.8893 19.6569 12.2458 19.1657 12.7378 18.8297C13.4586 18.314 14.3809 18.0112 15.5036 17.9208C16.4377 17.8392 17.474 17.7975 18.6138 17.7975C20.4083 17.7975 21.6872 17.9008 22.4496 18.1057C24.3102 18.6064 25.2404 20.0091 25.2404 22.314C25.2404 22.5031 25.2265 22.7857 25.1989 23.1636Z" fill="#0B4A8E"/>
<path fill-rule="evenodd" clip-rule="evenodd" d="M48.597 26.4282H51.4621C52.3706 26.3954 52.9231 26.3254 53.122 26.2159C53.3936 26.0662 53.5759 25.7668 53.6666 25.3175C53.7247 25.0185 53.7537 24.574 53.7537 23.9833C53.7537 23.2599 53.6961 22.7237 53.5803 22.3734C53.4149 21.8828 53.019 21.584 52.3919 21.4754C52.268 21.459 51.9712 21.4503 51.5009 21.4503H48.597V26.4282ZM44.0009 34.8127V17.707H52.5635C53.7379 17.707 54.6341 17.8031 55.2498 17.9951C56.6582 18.4371 57.6031 19.3421 58.087 20.7099C58.3369 21.4277 58.4618 22.5085 58.4618 23.9516C58.4618 25.6867 58.3232 26.9337 58.0491 27.6928C57.4999 29.194 56.3694 30.0588 54.6623 30.2829C54.4615 30.3165 53.6074 30.3466 52.0998 30.3707L51.3368 30.3962H48.5968V34.8127H44.0009Z" fill="#0B4A8E"/>
<path fill-rule="evenodd" clip-rule="evenodd" d="M67.3593 28.5239L65.2059 21.1089L63.1162 28.5239H67.3593ZM68.2721 31.8563H62.1272L61.3016 34.8127H56.5466L61.6774 17.707H68.6102L73.8039 34.8127H69.1488L68.2721 31.8563Z" fill="#0B4A8E"/>
<path fill-rule="evenodd" clip-rule="evenodd" d="M37.6576 20.1137C39.5532 20.1137 41.2449 20.9884 42.357 22.3584L43.3477 20.2307C41.7983 18.7637 39.6895 17.8593 37.3636 17.8593C33.7422 17.8593 30.6444 20.0502 29.373 23.1514H27.4412L26.3005 25.601H28.7857C28.767 25.8282 28.755 26.0557 28.755 26.2877C28.755 26.5684 28.7695 26.8459 28.7973 27.12H27.5483L26.4078 29.5705H29.4323C30.7399 32.5933 33.799 34.7154 37.3636 34.7154C39.16 34.7154 40.8269 34.1762 42.207 33.2553V30.2522C41.0956 31.5197 39.4699 32.3208 37.6576 32.3208C35.539 32.3208 33.6755 31.2265 32.5904 29.5705H38.9238L40.0643 27.12H31.6585C31.6152 26.8252 31.592 26.5238 31.592 26.2169C31.592 26.0094 31.6028 25.8039 31.6227 25.601H40.7711L41.9116 23.1514H32.4139C33.4642 21.3356 35.4189 20.1137 37.6576 20.1137Z" fill="#F6BC25"/>
</svg>
